{"title":"Cee-Lo Green - Fuck You [KingPinVideos]","uid":5844639,"size":81688174,"categoryP":"video","categoryS":"music_videos","magnet":"?xt=urn:btih:ee0dd7aadde2953ba06324975e32c033bf45caaf&amp;dn=Cee-Lo+Green+-+Fuck+You+%5BKingPinVideos%5D&amp;tr=udp%3A%2F%2Ftracker.openbittorrent.com%3A80&amp;tr=udp%3A%2F%2Fopen.demonii.com%3A1337&amp;tr=udp%3A%2F%2Ftracker.coppersurfer.tk%3A6969&amp;tr=udp%3A%2F%2Fexodus.desync.com%3A6969","seeders":0,"leechers":0,"uploader":"KingPinMan","files":5,"time":1285116073,"description":"[img]http://img837.imageshack.us/img837/3559/ceelofuckyou.png[/img]\n\n[img]http://img39.imageshack.us/img39/2034/ceelofuckyou2.png[/img]\n\n[code]General\nComplete name                    : Cee Lo Green - Fuck You [KingPinVideos].mpg\nFormat                           : MPEG-PS\nFile size                        : 77.9 MiB\nDuration                         : 3mn 48s\nOverall bit rate                 : 2 857 Kbps\nWriting library                  : encoded by TMPGEnc 4.0 XPress Version. 4.7.4.299\n\nVideo\nID                               : 224 (0xE0)\nFormat                           : MPEG Video\nFormat version                   : Version 1\nFormat settings, BVOP            : Yes\nFormat settings, Matrix          : Default\nDuration                         : 3mn 48s\nBit rate mode                    : Constant\nBit rate                         : 2 616 Kbps\nNominal bit rate                 : 2 700 Kbps\nWidth                            : 384 pixels\nHeight                           : 208 pixels\nDisplay aspect ratio             : 16:9\nFrame rate                       : 29.970 fps\nResolution                       : 8 bits\nScan type                        : Progressive\nBits/(Pixel*Frame)               : 1.093\nStream size                      : 71.3 MiB (92%)\nWriting library                  : TMPGEnc XPress 4.7.4.299\n\nAudio\nID                               : 192 (0xC0)\nFormat                           : MPEG Audio\nFormat version                   : Version 1\nFormat profile                   : Layer 2\nDuration                         : 3mn 48s\nBit rate mode                    : Constant\nBit rate                         : 128 Kbps\nChannel(s)                       : 2 channels\nSampling rate                    : 48.0 KHz\nStream size                      : 3.49 MiB (4%)[/code]","torrent":{"xt":"urn:btih:ee0dd7aadde2953ba06324975e32c033bf45caaf","amp;dn":"Cee-Lo+Green+-+Fuck+You+%5BKingPinVideos%5D","amp;tr":["udp%3A%2F%2Ftracker.openbittorrent.com%3A80","udp%3A%2F%2Fopen.demonii.com%3A1337","udp%3A%2F%2Ftracker.coppersurfer.tk%3A6969","udp%3A%2F%2Fexodus.desync.com%3A6969"],"infoHash":"ee0dd7aadde2953ba06324975e32c033bf45caaf","infoHashBuffer":{"type":"Buffer","data":[238,13,215,170,221,226,149,59,160,99,36,151,94,50,192,51,191,69,202,175]},"announce":[],"urlList":[]}}